<svg version="1" xmlns="http://www.w3.org/2000/svg" width="346.667" height="346.667" viewBox="0 0 260.000000 260.000000"><path d="M113.2 1C83.1 5.3 56.7 18.9 35.7 41 18.6 59 7.9 79.5 2.4 105.1c-2.6 11.8-2.6 38 0 49.8 5.9 27.3 16.7 47.4 36 66.7 19.3 19.3 39.4 30.1 66.7 36 11.8 2.6 38 2.6 49.8 0 27.3-5.9 47.4-16.7 66.7-36 19.3-19.3 30.1-39.4 36-66.7 1.4-6.2 1.8-12.7 1.8-24.9s-.4-18.7-1.8-24.9c-5.9-27.3-16.7-47.4-36-66.7-19-18.9-38.4-29.6-64.6-35.5C147.2.7 123-.4 113.2 1zM145 39.1c9.7 1.5 24.1 6.6 31.9 11.3 7.8 4.6 20.1 14.4 20.1 16 0 .6-5.9 7-13.1 14.2l-13.2 13.2-5.4-4.4C154.8 80.8 144.1 77 130.5 77c-14.2 0-26.8 5.3-37.1 15.6-6 5.9-12.4 16.8-14 23.6l-.6 2.8H103.5L77 145.5c-14.6 14.6-26.9 26.4-27.4 26.2-1.4-.5-6-12-8.2-20.7-2.7-10.4-2.7-31.5 0-42C51 71.3 80.3 44.8 119 38.7c5.3-.9 19.8-.6 26 .4zm71 56c5.1 12.2 6.5 20.2 6.5 35.4-.1 15.5-1.4 22.4-7 35.7-8.5 20-26.7 38.8-46 47.3-33.3 14.8-70.2 9.7-98-13.4-3.6-3-6.5-5.9-6.5-6.5 0-.6 5.9-7 13.1-14.2l13.2-13.2 5.4 4.4c21.9 17.9 52.1 16.5 71.9-3.2 6-5.9 12.4-16.8 14-23.7l.6-2.7H158.5l26.5-26.5c14.6-14.6 26.9-26.4 27.4-26.2.6.2 2.2 3.2 3.6 6.8zm-79 24.4c1.6.9 3.6 2.9 4.5 4.5 4.3 8.4-1.3 18-10.5 18s-14.8-9.6-10.5-18c2.9-5.5 10.5-7.6 16.5-4.5z"/></svg>